<?xml version="1.0" standalone="no"?>
<!DOCTYPE svg PUBLIC "-//W3C//DTD SVG 20010904//EN"
 "http://www.w3.org/TR/2001/REC-SVG-20010904/DTD/svg10.dtd">
<svg version="1.0" xmlns="http://www.w3.org/2000/svg"
 width="697.000000pt" height="784.000000pt" viewBox="0 0 697.000000 784.000000"
 preserveAspectRatio="xMidYMid meet">
<metadata>
Created by potrace 1.14, written by Peter Selinger 2001-2017
</metadata>
<g transform="translate(0.000000,784.000000) scale(0.100000,-0.100000)"
fill="#000000" stroke="none">
<path d="M3319 7756 c-82 -24 -160 -64 -419 -216 -115 -67 -245 -142 -520
-300 -80 -46 -205 -119 -278 -162 -73 -43 -135 -78 -137 -78 -1 0 -60 -34
-130 -75 -69 -41 -128 -75 -130 -75 -2 0 -71 -40 -155 -90 -84 -49 -154 -90
-156 -90 -2 0 -32 -17 -66 -38 -35 -21 -88 -52 -120 -69 -31 -17 -110 -63
-175 -101 -201 -117 -376 -219 -418 -242 -358 -199 -450 -284 -517 -479 l-23
-66 0 -1740 c0 -1670 1 -1742 19 -1795 44 -131 128 -243 234 -313 55 -37 288
-173 442 -260 19 -10 76 -43 125 -72 252 -148 396 -215 574 -267 67 -20 99
-23 266 -23 169 0 199 3 275 23 248 69 431 229 510 446 38 104 51 170 60 294
5 70 10 841 10 1725 0 1749 4 1641 -58 1666 -20 9 -89 11 -227 9 l-197 -3 -24
-30 -24 -30 -2 -1655 -3 -1655 -28 -60 c-64 -136 -184 -209 -342 -208 -147 0
-235 37 -568 235 -55 32 -100 58 -102 58 -2 0 -70 39 -152 88 -81 48 -164 95
-183 105 -19 11 -48 30 -65 43 l-30 24 -3 1627 c-1 896 0 1643 3 1661 5 28 49
82 67 82 3 0 55 29 115 64 59 35 167 97 238 138 72 41 189 108 260 150 72 41
191 110 265 153 243 140 383 221 533 309 81 47 149 86 152 86 2 0 46 25 97 56
50 31 101 60 113 65 11 6 29 15 40 22 44 26 246 143 365 212 69 40 184 106
255 148 72 41 150 86 175 100 25 14 76 44 115 66 79 46 108 50 162 20 42 -24
187 -107 218 -126 11 -7 27 -15 35 -19 8 -4 59 -34 113 -66 55 -32 100 -58
102 -58 2 0 61 -34 131 -76 71 -42 152 -89 179 -104 28 -15 133 -76 235 -135
288 -167 512 -296 546 -315 51 -30 533 -307 822 -474 74 -43 155 -89 180 -103
150 -84 238 -141 249 -163 10 -20 13 -374 13 -1668 l0 -1644 -32 -30 c-26 -24
-329 -208 -343 -208 -4 0 -202 -115 -225 -130 -8 -6 -22 -13 -30 -17 -8 -4
-75 -43 -150 -86 -74 -44 -151 -89 -170 -100 -70 -39 -205 -118 -220 -127 -8
-6 -22 -13 -30 -17 -8 -4 -46 -26 -85 -48 -38 -23 -77 -44 -85 -48 -8 -4 -31
-17 -50 -28 -55 -33 -251 -147 -410 -239 -80 -46 -197 -113 -260 -150 -63 -37
-180 -104 -260 -150 -80 -46 -206 -119 -280 -162 -74 -43 -163 -93 -197 -111
l-62 -32 -38 20 c-21 11 -184 107 -363 213 -378 225 -372 222 -403 222 -14 0
-65 -23 -115 -50 -101 -56 -180 -90 -335 -146 -63 -22 -77 -47 -45 -81 22 -24
126 -90 233 -148 28 -15 69 -41 93 -56 24 -16 45 -29 47 -29 2 0 142 -83 312
-184 169 -101 328 -193 352 -206 113 -57 259 -74 393 -46 86 19 134 42 388
191 58 34 112 64 120 68 15 7 29 15 166 98 45 27 84 49 88 49 3 0 36 18 72 41
37 22 113 67 168 98 123 71 319 184 486 281 68 40 140 81 158 92 18 10 93 53
165 95 73 42 222 128 332 191 110 63 217 126 237 139 21 12 40 23 42 23 4 0
195 110 226 130 8 6 22 13 30 17 8 4 69 39 135 77 66 39 138 80 160 91 22 11
76 56 120 100 86 85 143 181 167 281 17 70 24 3370 8 3469 -33 199 -131 334
-328 453 -57 34 -105 62 -107 62 -2 0 -61 34 -130 75 -70 41 -128 75 -130 75
-2 0 -39 21 -82 46 -81 48 -381 222 -443 257 -40 22 -235 135 -429 249 -73 43
-135 78 -136 78 -2 0 -61 34 -130 75 -70 41 -129 75 -130 75 -2 0 -64 35 -137
78 -203 119 -388 227 -443 258 -28 15 -94 54 -148 86 -55 32 -100 58 -102 58
-2 0 -54 30 -115 66 -147 86 -201 110 -300 128 -108 21 -168 19 -261 -8z"/>
<path d="M4040 5570 c-302 -33 -505 -94 -700 -208 -245 -143 -400 -358 -446
-615 -27 -156 -15 -372 28 -502 53 -163 193 -325 360 -418 210 -117 537 -198
953 -237 580 -55 955 -142 1080 -251 60 -53 75 -96 75 -214 0 -90 -4 -114 -27
-172 -88 -220 -379 -323 -915 -323 -347 0 -608 43 -773 128 -88 46 -182 138
-223 217 -31 62 -72 195 -72 233 0 12 -7 39 -16 61 -26 67 -53 73 -312 69
l-222 -3 -27 -28 c-28 -27 -28 -29 -26 -147 6 -308 151 -596 387 -769 213
-157 422 -234 806 -298 155 -26 778 -26 930 0 314 54 520 127 713 255 226 148
373 380 408 640 16 118 6 355 -19 447 -83 307 -314 487 -777 608 -145 38 -346
74 -690 122 -60 8 -144 20 -185 26 -41 6 -104 15 -140 19 -36 5 -83 14 -105
19 -22 6 -62 13 -89 16 -161 21 -395 103 -443 156 -37 41 -56 99 -56 174 0
235 143 360 483 421 73 13 152 17 340 17 270 0 401 -14 537 -59 222 -72 328
-184 408 -429 53 -164 35 -155 323 -155 235 0 237 0 267 24 29 24 30 26 28
108 -5 176 -88 428 -191 573 -124 176 -341 328 -572 402 -162 51 -315 79 -545
98 -222 19 -355 17 -555 -5z"/>
</g>
</svg>
