<?xml version="1.0" standalone="no"?><!DOCTYPE svg PUBLIC "-//W3C//DTD SVG 1.1//EN" "http://www.w3.org/Graphics/SVG/1.1/DTD/svg11.dtd"><svg class="icon" height="512" viewBox="0 0 1024 1024" version="1.1" xmlns="http://www.w3.org/2000/svg"><path d="M958.765664 503.557909c-0.511642-61.090037-77.053263-113.379834-195.24253-143.464374 5.423404-20.772659 9.823524-41.033676 12.791046-60.373739 14.223643-91.788548-1.534926-155.641451-44.410513-179.586289-52.596782-29.470571-134.561807 9.925852-218.061756 95.370041-14.018987-14.121315-28.037973-27.321675-42.05696-38.98711-71.425202-59.452783-134.254822-78.690517-176.925752-54.336364-42.67093 24.45648-57.815529 88.411712-42.670931 180.097931 3.274508 19.749375 7.981613 40.317378 13.712002 61.499351-21.181973 5.730389-41.44299 11.972419-60.066753 19.135405-86.876786 33.154392-134.459478 78.383532-134.050165 127.603478 0.409313 49.117618 48.708304 93.732787 135.994404 125.454581 18.419107 6.753672 38.373139 12.58639 59.248126 17.907465-5.423404 20.772659-9.823524 41.136005-12.893375 60.476067-14.223643 91.788548 1.534926 155.641451 44.410513 179.688618 11.870091 6.651344 25.275107 9.925852 39.908064 9.925852 38.27081 0 85.239532-22.409913 136.506046-66.001799 13.916658-11.767763 27.833317-25.172779 41.749975-39.396422 14.018987 14.121315 28.037973 27.321675 42.05696 38.987109 51.266513 42.67093 98.030579 64.569202 136.199061 64.569201 15.04227 0 28.651944-3.376836 40.726691-10.335165 53.210752-30.493854 60.987709-123.305686 28.958929-241.597282 118.393924-31.824123 194.62856-85.444189 194.116918-146.636555zM717.884681 145.203957c31.210153 17.395823 42.159288 72.141501 29.982212 150.115719-2.865194 18.623763-7.162986 38.168482-12.381733 58.224843-37.554512-7.981613-78.690517-13.916658-122.38473-17.293495-25.582093-36.838213-52.392126-70.606575-79.713801-100.179474C594.88598 172.730289 652.189867 138.961927 691.893275 138.961927c9.823524 0 18.521435 2.046567 25.991406 6.24203z m-75.620666 432.849006c-13.712002 24.558809-28.140302 48.196662-43.080244 70.811232-26.400719 2.148896-53.927051 3.376836-82.681323 3.581493-28.344959 0.204657-56.178275-0.61397-83.397621-2.455881-15.246927-22.512241-29.879884-46.150095-44.0012-70.708904-13.609673-23.84251-26.196063-47.68502-37.65684-71.52753 11.256121-23.84251 23.535525-47.889677 36.940542-71.834516 14.018987-25.070451 28.447287-48.605976 42.977915-70.708904 26.912361-2.148896 54.64335-3.376836 82.783652-3.683821h9.618867c25.479764 0 50.038573 0.818627 73.676426 2.353552 15.246927 22.512241 29.982212 46.252423 44.103528 70.811232 13.916658 24.251824 26.400719 48.094334 37.65684 71.425203-11.256121 23.944839-23.535525 47.992006-36.940542 71.936844z m52.494454-38.270811c13.81433 31.41481 25.275107 61.49935 34.280004 89.946638-28.651944 6.446687-59.964425 11.767763-93.52813 15.553912 10.949136-17.293495 21.591286-34.893974 31.824123-53.210752 9.823524-17.395823 18.82842-34.791646 27.424003-52.289798zM516.604777 756.51364c-21.181973-23.126212-42.159288-48.708304-62.420306-76.643949 17.498151 0.818627 35.200959 1.330269 53.108424 1.330269h9.41421c20.977316-0.204657 41.545318-0.920955 61.601679-2.148896-19.954032 28.24263-40.726691 54.029379-61.704007 77.462576zM396.778255 646.919956c-32.847407-3.274508-64.159888-8.18627-93.630458-14.4283 8.902568-29.368242 19.954032-59.759768 33.25672-90.765264 8.80024 17.293495 17.907465 34.586989 27.833317 51.880483 10.437494 18.316778 21.386629 36.019586 32.540421 53.313081z m-60.783052-172.934946c-13.405016-30.493854-24.661137-60.373738-33.768362-89.434995 29.163585-6.549016 60.169082-11.870091 92.607175-15.656241-10.744479 17.088838-21.284301 34.689317-31.517138 53.006096-9.721195 17.395823-18.726092 34.791646-27.321675 52.08514z m177.846708-216.833816c21.284301 23.22854 42.261617 48.810633 62.624962 76.746278-20.363346-0.920955-41.136005-1.330269-62.420306-1.125612-20.977316 0.204657-41.545318 1.023284-61.908664 2.353552 20.465674-29.061257 41.238333-55.154992 61.704008-77.974218zM666.515839 420.364945c-10.539822-18.419107-21.591286-36.224243-32.847407-53.517738 33.768362 3.376836 65.183172 8.18627 93.937444 14.223643-8.902568 29.470571-20.056361 59.964425-33.25672 91.07225C685.651244 454.951934 676.441691 437.760767 666.515839 420.364945zM280.635555 297.5709c-12.893375-77.769561-2.455881-132.617568 28.549615-150.422704 7.674628-4.40012 16.679524-6.549016 26.707705-6.549015 30.698511 0 71.834516 20.056361 117.472969 58.020185 13.507345 11.256121 27.219346 24.149495 40.726691 37.861497-26.707705 29.572899-53.313081 63.648246-78.997502 101.509744-42.67093 3.990806-83.397622 10.437494-121.15679 19.033076-5.525732-20.568002-10.130509-40.419706-13.302688-59.452783z m-62.829619 311.282902c-74.08574-26.912361-116.75667-62.931948-117.063656-98.644548-0.306985-35.712601 41.852303-72.346158 115.52873-100.48646 18.009793-6.856001 37.554512-12.995703 58.020186-18.419107 11.870091 37.65684 27.117018 76.848606 45.638453 116.552014-18.316778 40.317378-33.359049 80.020785-44.819826 118.086939-20.261017-4.911762-39.601079-10.539822-57.303887-17.088838zM456.435695 815.966424c-60.169082 51.061857-112.458879 70.29959-143.669032 52.903767s-42.159288-72.141501-29.982212-150.115719c2.865194-18.726092 7.162986-38.27081 12.484061-58.429499 38.066154 8.083941 79.09983 14.018987 122.180074 17.395822 25.582093 36.838213 52.289797 70.401919 79.509144 99.974818-13.507345 13.81433-27.01469 26.810033-40.522035 38.270811z m265.030479 50.857199c-31.005496 17.805136-83.49995-1.023284-144.180674-51.47117-13.609673-11.256121-27.219346-24.149495-40.82902-37.861497 27.01469-29.982212 53.517738-64.05756 78.792845-101.202758 43.591886-4.093135 84.523234-10.64215 121.873089-19.135405C767.002298 765.825522 759.532327 845.027681 721.466174 866.823623zM756.769461 622.975117c-11.665434-37.247527-26.912361-76.643949-45.843109-117.063655 18.316778-40.419706 33.359049-80.123114 44.922154-118.393924 108.877386 27.321675 173.855901 72.448486 174.265214 116.245028 0.204657 43.796542-64.364545 90.151294-173.344259 119.212551z"  /><path d="M515.376836 507.037074m-74.290397 0a74.290397 74.290397 0 1 0 148.580794 0 74.290397 74.290397 0 1 0-148.580794 0Z"  /></svg>