<svg id="Capa_1" enable-background="new 0 0 512.151 512.151" height="512" viewBox="0 0 512.151 512.151" width="512" xmlns="http://www.w3.org/2000/svg"><path d="m467.077 392.075h-120.081l-35.63-49.785 192.095-266.454c14.657-20.044 10.344-48.152-9.721-62.861-20.011-14.668-48.228-10.326-62.9 9.683-.027.037-174.845 243.132-174.845 243.132s-174.654-243.094-174.682-243.133c-14.674-20.008-42.89-24.352-62.9-9.683-19.929 14.609-24.469 42.675-9.734 62.844l192.049 266.825-35.548 49.432h-120.103c-24.813 0-45 20.187-45 45v30c0 24.813 20.187 45 45 45h136.208c4.821 0 9.348-2.317 12.167-6.228l62.33-86.458 62.958 86.512c2.822 3.879 7.33 6.174 12.128 6.174h136.208c24.813 0 45-20.187 45-45v-30c.001-24.813-20.186-45-44.999-45zm-12.009-351.724c4.901-6.632 14.279-8.06 20.937-3.181 6.689 4.903 8.133 14.285 3.229 20.975-.024.033-91.97 127.57-91.97 127.57l-23.861-17.896zm-422.148 17.794c-4.904-6.687-3.462-16.071 3.229-20.975 6.654-4.88 16.034-3.449 20.936 3.182l91.611 127.509-23.904 17.928c-.037-.053-91.833-127.593-91.872-127.644zm109.402 151.997 23.883-17.913 71.312 99.256-18.316 25.47zm-82.245 271.933h-15c-8.271 0-15-6.729-15-15v-30c0-8.271 6.729-15 15-15h15zm61 0h-31v-60h31zm52.53 0h-22.53v-60h21.792c4.827 0 9.36-2.323 12.178-6.242l160.836-223.653 23.833 17.874zm187.47 0h-22.572l-64.258-88.297 18.606-25.808 34.234 47.835c2.816 3.936 7.358 6.271 12.198 6.271h21.792zm61 0h-31v-60h31zm60-15c0 8.271-6.729 15-15 15h-15v-60h15c8.271 0 15 6.729 15 15z"/><path d="m256.077 150.075c39.822 0 75-17.348 75-45v-60c0-30.289-40.046-45-75-45-39.724 0-75 17.295-75 45v60c0 30.289 40.046 45 75 45zm0-30c-29.199 0-45-11.469-45-15v-23.467c12.743 5.474 28.518 8.467 45 8.467s32.257-2.993 45-8.467v23.467c0 3.317-15.267 15-45 15zm0-90c28.797 0 45 11.324 45 15 0 3.317-15.266 15-45 15-29.199 0-45-11.469-45-15 0-3.32 15.281-15 45-15z"/></svg>