<?xml version="1.0" encoding="iso-8859-1"?>
<!-- Generator: Adobe Illustrator 21.0.0, SVG Export Plug-In . SVG Version: 6.00 Build 0)  -->
<svg xmlns="http://www.w3.org/2000/svg" xmlns:xlink="http://www.w3.org/1999/xlink" version="1.1" id="Capa_1" x="0px" y="0px" viewBox="0 0 508.486 508.486" style="enable-background:new 0 0 508.486 508.486;" xml:space="preserve" width="512" height="512">
<g>
	<path d="M93.926,470.735H45.043C28.478,470.735,15,457.258,15,440.691v-47.394h41.027v19.134c0,4.143,3.358,7.5,7.5,7.5h94.387   c4.142,0,7.5-3.357,7.5-7.5v-19.134H270.88c4.142,0,7.5-3.357,7.5-7.5c0-4.143-3.358-7.5-7.5-7.5H116.426v-37.383h8.404   c10.33,0,18.734-8.404,18.734-18.734v-13.699h1.7c17.763,0,33.382-11.982,37.985-29.138l8.85-32.991   c2.042-7.616,8.976-12.934,16.86-12.934h116.529c8.201,0,14.873,6.672,14.873,14.873v115.135c0,8.2-6.672,14.872-14.873,14.872   H300.88c-4.142,0-7.5,3.357-7.5,7.5c0,4.143,3.358,7.5,7.5,7.5h24.608c16.472,0,29.873-13.4,29.873-29.872V248.291   c0-16.472-13.401-29.873-29.873-29.873H208.959c-14.659,0-27.55,9.889-31.349,24.048l-8.849,32.991   c-2.847,10.612-12.509,18.025-23.497,18.025H70.664c-6.409,0-12.313-2.611-16.625-7.354c-4.311-4.742-6.351-10.867-5.743-17.247   l10.764-112.936c2.189-22.963,21.234-40.279,44.301-40.279h51.123c4.142,0,7.5-3.357,7.5-7.5s-3.358-7.5-7.5-7.5h-36.264V82.335   c0-4.143-3.358-7.5-7.5-7.5c-4.142,0-7.5,3.357-7.5,7.5v18.334c-30.778,0.071-56.17,23.197-59.093,53.852L33.364,267.457   c-1,10.485,2.491,20.969,9.577,28.762c7.085,7.793,17.19,12.263,27.723,12.263h3.624v13.699c0,10.33,8.404,18.734,18.734,18.734   h8.404v37.383H7.5c-4.142,0-7.5,3.357-7.5,7.5v54.894c0,24.837,20.207,45.044,45.043,45.044h48.882c4.142,0,7.5-3.357,7.5-7.5   C101.426,474.093,98.068,470.735,93.926,470.735z M89.288,322.181v-13.699h39.277v13.699c0,2.06-1.675,3.734-3.734,3.734H93.022   C90.963,325.915,89.288,324.24,89.288,322.181z M150.414,404.932H71.027v-11.634h79.387V404.932z"/>
	<path d="M448.984,100.666h-7.89V47.598c0-4.143-3.358-7.5-7.5-7.5h-13.901v-9.847c0-4.143-3.358-7.5-7.5-7.5s-7.5,3.357-7.5,7.5   v9.847H390.83c-4.142,0-7.5,3.357-7.5,7.5v53.068H184.484c-4.142,0-7.5,3.357-7.5,7.5s3.358,7.5,7.5,7.5h264.5   c24.539,0,44.502,19.964,44.502,44.502v280.523c0,16.566-13.478,30.044-30.043,30.044H123.926c-4.142,0-7.5,3.357-7.5,7.5   c0,4.143,3.358,7.5,7.5,7.5h339.517c24.837,0,45.043-20.207,45.043-45.044V160.168   C508.486,127.358,481.794,100.666,448.984,100.666z M398.33,55.098h27.765v45.568H398.33V55.098z"/>
	<path d="M426.379,216.845c-20.319,0-36.85,16.53-36.85,36.85c0,20.319,16.531,36.851,36.85,36.851   c20.319,0,36.85-16.531,36.85-36.851C463.229,233.375,446.698,216.845,426.379,216.845z M426.379,275.545   c-12.048,0-21.85-9.802-21.85-21.851c0-12.048,9.802-21.85,21.85-21.85c12.048,0,21.85,9.802,21.85,21.85   C448.229,265.743,438.427,275.545,426.379,275.545z"/>
	<path d="M297.204,172.994c4.142,0,7.5-3.357,7.5-7.5c0-4.143-3.358-7.5-7.5-7.5h-22.646c-4.142,0-7.5,3.357-7.5,7.5   c0,4.143,3.358,7.5,7.5,7.5H297.204z"/>
	<path d="M449.515,157.994H332.144c-4.142,0-7.5,3.357-7.5,7.5c0,4.143,3.358,7.5,7.5,7.5h117.371c4.142,0,7.5-3.357,7.5-7.5   C457.015,161.352,453.657,157.994,449.515,157.994z"/>
</g>















</svg>
